# xmcd
#
# Track frame offsets: 
#        150
#        16738
#        34214
#        46014
#        57115
#        77736
#        92643
#        105418
#        118967
#        130349
#        148628
#        167228
#        185957
#        199928
#        211052
#        226799
#        249302
#        265394
#        279397
#
# Disc length: 3959 seconds
#
# Revision: 0
# Processed by: cddbd v1.5.2PL0 Copyright (c) Steve Scherf et al.
# Submitted via: ExactAudioCopyFreeDBPlugin 1.0
#
DISCID=080f7513
DTITLE=รวมศิลปิน - The Sound Of Siam: Leftfield Luk Thung, Jazz and Mola
DTITLE=m In Thailand 1964-1975
DYEAR=1900
DGENRE=Thai  Isan
TTITLE0=Chaweewan Dumnern - Lam Tung Wai
TTITLE1=Chaweewan Dumnern - Lam Toey Chaweewan
TTITLE2=Onuma Singsiri - Mae Kha Som Tam
TTITLE3=Thapporn Petchubon , Noknoi Uraiporn , Thonthai Tin Isan - Isa
TTITLE3=n Klab Tin
TTITLE4=Ream Daranoi - Fai Yen
TTITLE5=Panom Nopporn - Sao Ban Pok Pab
TTITLE6=Plearn Promdan - Wan Maha Sanook
TTITLE7=The Petch Phin Thong Band - Soul Lam Plearn
TTITLE8=Waipod Phetsuphan - Ding Ding Dong
TTITLE9=Saknatee Srichiangmai - Nom Samai Mai
TTITLE10=Yenjit Porntawi - Lam Plearn Toh Lom Nhao
TTITLE11=Chaweewan Dumnern - Sao Lam Plearn
TTITLE12=Dao Bandon - Me Jom Ka Lon
TTITLE13=Sanae Petchaboon - Pen Jung Dai
TTITLE14=Thong Huad and Kunp'an - Diew Sor Diew Caan
TTITLE15=Sodsri Rungsang - Uay Porn Tahan Chaydan
TTITLE16=Kawaw Siang Thong - Kai Tom Yum
TTITLE17=The Viking Combo Band - Pleng Yuk Owakard
TTITLE18=Dao Bandon - Tang Ngarn Si Nong
EXTD=
EXTT0=
EXTT1=
EXTT2=
EXTT3=
EXTT4=
EXTT5=
EXTT6=
EXTT7=
EXTT8=
EXTT9=
EXTT10=
EXTT11=
EXTT12=
EXTT13=
EXTT14=
EXTT15=
EXTT16=
EXTT17=
EXTT18=
PLAYORDER=
